<?xml version="1.0" encoding="UTF-8"?>
<svg width="60px" height="34px" viewBox="0 0 60 34" version="1.1" xmlns="http://www.w3.org/2000/svg" xmlns:xlink="http://www.w3.org/1999/xlink">
    <title>Combined Shape</title>
    <g id="Website-Design-" stroke="none" stroke-width="1" fill="none" fill-rule="evenodd">
        <g id="NASA---Website-Design-" transform="translate(-1800.000000, -81.000000)" fill="#FFFFFF">
            <g id="Main-Banner" transform="translate(-21.000000, 0.000000)">
                <path d="M1878,109 C1879.65685,109 1881,110.343146 1881,112 C1881,113.656854 1879.65685,115 1878,115 L1824,115 C1822.34315,115 1821,113.656854 1821,112 C1821,110.343146 1822.34315,109 1824,109 L1878,109 Z M1878,95 C1879.65685,95 1881,96.3431458 1881,98 C1881,99.6568542 1879.65685,101 1878,101 L1824,101 C1822.34315,101 1821,99.6568542 1821,98 C1821,96.3431458 1822.34315,95 1824,95 L1878,95 Z M1878,81 C1879.65685,81 1881,82.3431458 1881,84 C1881,85.6568542 1879.65685,87 1878,87 L1824,87 C1822.34315,87 1821,85.6568542 1821,84 C1821,82.3431458 1822.34315,81 1824,81 L1878,81 Z" id="Combined-Shape"></path>
            </g>
        </g>
    </g>
</svg>